<?xml version="1.0" encoding="UTF-8" standalone="no"?>
<!-- Created with Inkscape (http://www.inkscape.org/) -->
<svg
   xmlns:svg="http://www.w3.org/2000/svg"
   xmlns="http://www.w3.org/2000/svg"
   version="1.0"
   width="265.01669"
   height="100"
   id="svg2178">
  <defs
     id="defs2193" />
  <g
     transform="scale(0.5232151,0.5232151)"
     id="g2215">
    <path
       d="M 276.58925,104.89779 L 295.36199,104.89779 L 296.91319,104.92943 L 298.43274,104.99272 L 299.92063,105.11929 L 301.34521,105.27751 L 302.73812,105.49901 L 304.06773,105.75216 L 305.36568,106.03695 L 306.63196,106.38502 L 307.83494,106.79639 L 309.00626,107.20775 L 310.11426,107.71405 L 311.19061,108.22034 L 312.20364,108.78992 L 313.18501,109.39114 L 314.10307,110.05566 L 314.98947,110.75181 L 315.81256,111.51125 L 316.60399,112.27069 L 317.33211,113.09342 L 317.99691,113.97943 L 318.63006,114.89709 L 319.19989,115.84639 L 319.73806,116.82734 L 320.21292,117.87157 L 320.62446,118.9158 L 320.97269,120.05496 L 321.28926,121.19412 L 321.54252,122.39657 L 321.73246,123.63066 L 321.85909,124.8964 L 321.95407,126.19378 L 321.98572,127.55444 L 321.95407,128.78853 L 321.85909,129.99098 L 321.73246,131.16179 L 321.51086,132.2693 L 321.25761,133.37682 L 320.90938,134.42105 L 320.52949,135.46528 L 320.11795,136.44623 L 319.61143,137.39553 L 319.07326,138.31319 L 318.50343,139.1992 L 317.83863,140.02193 L 317.14217,140.81301 L 316.41405,141.6041 L 315.62262,142.3319 L 314.76787,142.99641 L 313.88147,143.66092 L 312.93175,144.26214 L 311.95038,144.83172 L 310.93735,145.36966 L 309.861,145.84431 L 308.72134,146.28732 L 307.58168,146.69868 L 306.37871,147.0784 L 305.14407,147.39484 L 303.84613,147.67963 L 302.51652,147.90113 L 301.15526,148.09099 L 299.76234,148.24921 L 298.33777,148.37578 L 296.84988,148.43907 L 295.36199,148.47071 L 276.58925,148.47071 L 276.58925,104.89779 z M 276.58925,45.408242 L 295.07707,45.408242 L 296.37502,45.408242 L 297.64131,45.471529 L 298.9076,45.566459 L 300.11057,45.724676 L 301.28189,45.882892 L 302.3899,46.104396 L 303.4979,46.3259 L 304.54259,46.61069 L 305.55562,46.958767 L 306.53699,47.306844 L 307.48671,47.686565 L 308.37311,48.129572 L 309.25951,48.604223 L 310.0826,49.110517 L 310.84238,49.648454 L 311.57049,50.218035 L 312.26695,50.819259 L 312.93175,51.48377 L 313.53324,52.179924 L 314.10307,52.876078 L 314.64124,53.635519 L 315.1161,54.426603 L 315.5593,55.249331 L 315.97085,56.103702 L 316.31908,56.989717 L 316.60399,57.907375 L 316.85725,58.856676 L 317.07885,59.869264 L 317.23714,60.881852 L 317.36377,61.957726 L 317.42708,63.033601 L 317.45874,64.172763 L 317.42708,65.280281 L 317.33211,66.387799 L 317.20548,67.43203 L 316.98388,68.476261 L 316.76228,69.457206 L 316.44571,70.406507 L 316.09748,71.324165 L 315.68593,72.178536 L 315.24273,73.032907 L 314.73622,73.855635 L 314.19804,74.615076 L 313.59656,75.342874 L 312.99507,76.039028 L 312.33027,76.703539 L 311.60215,77.336406 L 310.87403,77.905987 L 310.0826,78.475568 L 309.25951,78.981862 L 308.43643,79.488156 L 307.55002,79.931163 L 306.63196,80.342527 L 305.7139,80.690604 L 304.73253,81.038681 L 303.75116,81.355115 L 302.73812,81.608262 L 301.69344,81.861409 L 300.61709,82.051269 L 299.54074,82.209486 L 298.4644,82.336059 L 297.35639,82.430989 L 296.21673,82.462633 L 295.07707,82.494276 L 276.58925,82.494276 L 276.58925,45.408242 z M 327.65237,91.987288 L 328.41214,91.607568 L 329.20357,91.164561 L 330.02666,90.721553 L 330.84975,90.246903 L 331.67284,89.708965 L 332.49592,89.139385 L 333.35067,88.538161 L 334.17376,87.87365 L 335.0285,87.209139 L 335.85159,86.481341 L 336.67468,85.7219 L 337.49777,84.899173 L 338.32086,84.076445 L 339.11229,83.19043 L 339.87206,82.272773 L 340.63183,81.291828 L 341.35995,80.310883 L 342.05641,79.266652 L 342.75287,78.190777 L 343.38601,77.051616 L 343.9875,75.880811 L 344.55733,74.678363 L 345.0955,73.444271 L 345.57036,72.146893 L 346.01356,70.817871 L 346.42511,69.425563 L 346.74168,68.001611 L 347.02659,66.546016 L 347.2482,65.058777 L 347.40648,63.508252 L 347.53311,61.926083 L 347.56477,60.280628 L 347.50145,58.287095 L 347.37482,56.325206 L 347.12157,54.39496 L 346.80499,52.496358 L 346.39345,50.629399 L 345.85528,48.794083 L 345.25379,46.99041 L 344.52567,45.250025 L 343.73424,43.541283 L 342.81618,41.864184 L 341.80315,40.250372 L 340.69515,38.668203 L 339.49217,37.180965 L 338.19423,35.725369 L 336.76965,34.301417 L 335.28176,32.972396 L 333.66724,31.706661 L 331.95775,30.472569 L 330.12163,29.333408 L 328.2222,28.257533 L 326.19613,27.276588 L 324.04344,26.327287 L 321.82744,25.472916 L 319.4848,24.713475 L 317.01554,24.017321 L 314.4513,23.416097 L 311.79209,22.909803 L 309.00626,22.466796 L 306.12545,22.118718 L 303.11801,21.897215 L 300.0156,21.738998 L 296.81822,21.675711 L 232.36409,21.675711 L 232.36409,45.408242 L 247.9078,45.408242 L 247.9078,172.1716 L 299.03423,172.1716 L 301.56681,172.13995 L 304.13104,172.01338 L 306.63196,171.85516 L 309.13289,171.60202 L 311.63381,171.25394 L 314.07141,170.84258 L 316.47736,170.36793 L 318.85166,169.79835 L 321.16263,169.16548 L 323.44196,168.43768 L 325.65796,167.61495 L 327.81065,166.72894 L 329.93169,165.74799 L 331.95775,164.70376 L 333.9205,163.5646 L 335.78828,162.29887 L 337.59274,161.00149 L 339.33389,159.57754 L 340.94841,158.05865 L 342.49961,156.47648 L 343.95584,154.76774 L 345.28545,152.99571 L 346.52008,151.12875 L 347.62808,149.13522 L 348.64111,147.0784 L 349.52752,144.89501 L 350.28729,142.61669 L 350.92043,140.24343 L 351.42695,137.77525 L 351.77518,135.18049 L 351.99678,132.49081 L 352.09175,129.70619 L 352.02844,127.5228 L 351.90181,125.43433 L 351.68021,123.37752 L 351.36364,121.41563 L 350.95209,119.54867 L 350.50889,117.74499 L 349.97072,115.97297 L 349.36923,114.32751 L 348.70443,112.7137 L 348.00797,111.16317 L 347.2482,109.70758 L 346.42511,108.31527 L 345.57036,106.9546 L 344.68396,105.68887 L 343.7659,104.48642 L 342.81618,103.34726 L 341.83481,102.23974 L 340.85343,101.22715 L 339.8404,100.24621 L 338.82737,99.360195 L 337.81434,98.505823 L 336.80131,97.714739 L 335.78828,96.955298 L 334.77525,96.290787 L 333.79387,95.65792 L 332.8125,95.088339 L 331.89444,94.550402 L 330.97638,94.075751 L 330.08997,93.664387 L 329.23523,93.284667 L 328.41214,92.93659 L 327.65237,92.651799 L 327.65237,91.987288 z "
       style="fill:#371d68;fill-opacity:1;fill-rule:evenodd;stroke:none"
       id="path2180" />
    <path
       d="M 475.96651,96.923655 L 475.90319,99.866489 L 475.74491,102.71439 L 475.49165,105.49901 L 475.14342,108.22034 L 474.66856,110.84674 L 474.09873,113.40985 L 473.43393,115.90968 L 472.6425,118.31458 L 471.78775,120.65619 L 470.80638,122.90286 L 469.76169,125.05461 L 468.59037,127.11143 L 467.32408,129.10497 L 465.99448,131.00357 L 464.53825,132.83888 L 462.98704,134.54763 L 461.37252,136.16144 L 459.63137,137.71196 L 457.82691,139.13592 L 455.92748,140.49658 L 453.93307,141.73067 L 451.84369,142.86983 L 449.691,143.91407 L 447.41168,144.86337 L 445.06905,145.68609 L 442.6631,146.41389 L 440.13052,147.01512 L 437.53463,147.55305 L 434.87542,147.93277 L 432.12124,148.21756 L 429.27209,148.40742 L 426.35962,148.47071 L 412.55707,148.47071 L 412.55707,45.408242 L 426.35962,45.408242 L 429.27209,45.471529 L 432.12124,45.629745 L 434.87542,45.914536 L 437.53463,46.3259 L 440.13052,46.832194 L 442.6631,47.465061 L 445.06905,48.192859 L 447.41168,49.015586 L 449.691,49.933244 L 451.84369,50.977476 L 453.93307,52.116637 L 455.92748,53.382372 L 457.82691,54.711394 L 459.63137,56.166989 L 461.37252,57.685871 L 462.98704,59.299683 L 464.53825,61.040069 L 465.99448,62.843741 L 467.32408,64.742343 L 468.59037,66.735876 L 469.76169,68.824339 L 470.80638,70.976088 L 471.78775,73.222768 L 472.6425,75.532734 L 473.43393,77.93763 L 474.09873,80.437457 L 474.66856,83.00057 L 475.14342,85.62697 L 475.49165,88.3483 L 475.74491,91.132917 L 475.90319,94.012464 L 475.96651,96.923655 z M 506.51574,96.923655 L 506.42077,92.588513 L 506.13585,88.3483 L 505.66099,84.203018 L 504.99619,80.215953 L 504.14144,76.323818 L 503.12841,72.526613 L 501.92544,68.887625 L 500.53252,65.343567 L 498.98132,61.926083 L 497.27183,58.666816 L 495.37239,55.502478 L 493.31467,52.464714 L 491.06701,49.585167 L 488.69271,46.80055 L 486.12848,44.17415 L 483.43761,41.674324 L 480.55681,39.332714 L 477.54937,37.117678 L 474.38365,35.029215 L 471.05964,33.098969 L 467.57734,31.32694 L 463.96842,29.681485 L 460.2012,28.194246 L 456.30736,26.833581 L 452.2869,25.631133 L 448.10814,24.618545 L 443.83441,23.732531 L 439.4024,23.004733 L 434.84376,22.435152 L 430.15849,22.023788 L 425.34659,21.770641 L 420.40806,21.675711 L 368.36357,21.675711 L 368.36357,45.408242 L 383.87561,45.408242 L 383.87561,172.1716 L 420.40806,172.1716 L 425.34659,172.07667 L 430.15849,171.85516 L 434.84376,171.4438 L 439.4024,170.87422 L 443.83441,170.14642 L 448.10814,169.26041 L 452.2869,168.21618 L 456.30736,167.01373 L 460.2012,165.68471 L 463.96842,164.19747 L 467.57734,162.55201 L 471.05964,160.74834 L 474.38365,158.81809 L 477.54937,156.76128 L 480.55681,154.54624 L 483.43761,152.17299 L 486.12848,149.67316 L 488.69271,147.04676 L 491.06701,144.29379 L 493.31467,141.3826 L 495.37239,138.37647 L 497.27183,135.21214 L 498.98132,131.92123 L 500.56418,128.50374 L 501.92544,124.99133 L 503.12841,121.3207 L 504.14144,117.55513 L 504.99619,113.663 L 505.66099,109.64429 L 506.13585,105.53065 L 506.42077,101.29044 L 506.51574,96.923655 z "
       style="fill:#371d68;fill-opacity:1;fill-rule:evenodd;stroke:none"
       id="path2182" />
    <path
       d="M 95.604845,115.37174 L 189.40523,76.893399 L 188.99368,74.899866 L 132.13729,78.475568 L 132.45387,78.159134 L 133.37193,77.178189 L 134.82816,75.690951 L 136.75925,73.697418 L 139.07023,71.292522 L 141.69778,68.539548 L 144.61024,65.533428 L 147.71265,62.305804 L 150.94169,58.951606 L 154.23404,55.534121 L 157.49474,52.084994 L 160.72377,48.762439 L 163.79453,45.534815 L 166.67533,42.560338 L 169.30289,39.839008 L 171.55055,37.497398 L 170.4742,36.136733 L 119.60103,65.881505 L 138.31045,10.03095 L 136.85422,9.3347954 L 103.86738,59.774334 L 96.396276,0 L 94.813415,0 L 87.31065,59.774334 L 54.35547,9.3347954 L 52.899237,10.03095 L 71.513691,65.944792 L 20.735488,36.136733 L 19.659142,37.497398 L 58.977426,78.602141 L 58.534225,78.570498 L 57.204621,78.475568 L 55.115244,78.348994 L 52.361064,78.159134 L 49.037055,77.93763 L 45.238187,77.716127 L 41.059432,77.431336 L 36.595762,77.146546 L 31.942149,76.830112 L 27.193564,76.513679 L 22.476636,76.228888 L 17.823023,75.912454 L 13.39101,75.627664 L 9.2755694,75.342874 L 5.5083586,75.12137 L 2.2476636,74.899866 L 1.8361195,76.893399 L 95.604845,115.37174 z "
       style="fill:#ffffff;fill-opacity:1;fill-rule:evenodd;stroke:none"
       id="path2184" />
    <path
       d="M 96.396276,0 L 97.757537,0.031643374 L 99.087141,0.063286748 L 100.4484,0.1265735 L 101.77801,0.18986024 L 103.10761,0.28479037 L 104.43721,0.41136386 L 105.76682,0.53793736 L 107.09642,0.66451086 L 108.42602,0.8543711 L 109.72397,1.0442313 L 111.02192,1.2340916 L 112.31986,1.4555952 L 113.61781,1.6770988 L 114.91576,1.9302458 L 116.18205,2.2150362 L 117.44834,2.4998266 L 118.71463,2.8162603 L 119.98092,3.132694 L 121.2472,3.4807711 L 122.48184,3.8288483 L 123.71647,4.2085688 L 124.9511,4.5882892 L 126.18573,4.9996531 L 127.38871,5.411017 L 128.62334,5.8540242 L 129.82631,6.2970314 L 130.99763,6.7716821 L 132.20061,7.2463327 L 133.37193,7.7526266 L 134.54324,8.2589206 L 135.71456,8.796858 L 136.85422,9.3347954 L 103.86738,59.774334 L 96.396276,0 z M 119.60103,65.881505 L 170.4742,36.136733 L 169.68277,35.124145 L 168.82803,34.111557 L 168.00494,33.130613 L 167.15019,32.149668 L 166.26379,31.168723 L 165.37739,30.219422 L 164.49099,29.270121 L 163.57293,28.352463 L 162.65487,27.434805 L 161.70515,26.517147 L 160.75543,25.631133 L 159.80572,24.745119 L 158.856,23.890747 L 157.87462,23.036376 L 156.86159,22.182005 L 155.84856,21.359277 L 154.83553,20.53655 L 153.8225,19.745465 L 152.77781,18.954381 L 151.73312,18.163297 L 150.65677,17.403856 L 149.58043,16.676058 L 148.50408,15.948261 L 147.42774,15.220463 L 146.31973,14.524309 L 145.21173,13.828154 L 144.07207,13.163644 L 142.93241,12.499133 L 141.79275,11.866265 L 140.65309,11.233398 L 139.48177,10.632174 L 138.31045,10.03095 L 119.60103,65.881505 z M 132.13729,78.475568 L 188.99368,74.899866 L 188.67711,73.602488 L 188.36054,72.30511 L 188.04397,71.039375 L 187.69574,69.741996 L 187.34751,68.476261 L 186.96762,67.24217 L 186.55608,65.976435 L 186.14453,64.742343 L 185.70133,63.508252 L 185.25813,62.27416 L 184.81493,61.040069 L 184.30841,59.83762 L 183.83356,58.635172 L 183.32704,57.432724 L 182.78887,56.261919 L 182.25069,55.091114 L 181.68086,53.920309 L 181.11103,52.749505 L 180.5412,51.5787 L 179.90806,50.439538 L 179.30657,49.33202 L 178.67343,48.192859 L 178.00862,47.085341 L 177.37548,45.977823 L 176.67902,44.870304 L 175.98256,43.79443 L 175.2861,42.718555 L 174.55799,41.64268 L 173.82987,40.598449 L 173.10175,39.554218 L 172.34198,38.509986 L 171.55055,37.497398 L 169.30289,39.839008 L 166.67533,42.560338 L 163.79453,45.534815 L 160.72377,48.762439 L 157.49474,52.084994 L 154.23404,55.534121 L 150.94169,58.951606 L 147.71265,62.305804 L 144.61024,65.533428 L 141.69778,68.539548 L 139.07023,71.292522 L 136.75925,73.697418 L 134.82816,75.690951 L 133.37193,77.178189 L 132.45387,78.159134 L 132.13729,78.475568 z M 71.513691,65.944792 L 52.899237,10.03095 L 51.72792,10.632174 L 50.556602,11.233398 L 49.416942,11.866265 L 48.277281,12.499133 L 47.137621,13.163644 L 46.029618,13.828154 L 44.889957,14.524309 L 43.813611,15.220463 L 42.705608,15.948261 L 41.629262,16.676058 L 40.552916,17.435499 L 39.47657,18.19494 L 38.431882,18.954381 L 37.387193,19.745465 L 36.374161,20.53655 L 35.36113,21.359277 L 34.348098,22.182005 L 33.366724,23.036376 L 32.38535,23.890747 L 31.403976,24.745119 L 30.454259,25.631133 L 29.504542,26.517147 L 28.554825,27.434805 L 27.636765,28.352463 L 26.718705,29.270121 L 25.832303,30.219422 L 24.9459,31.168723 L 24.091155,32.149668 L 23.236409,33.130613 L 22.381664,34.111557 L 21.558576,35.124145 L 20.735488,36.136733 L 71.513691,65.944792 z M 58.977426,78.602141 L 19.659142,37.497398 L 18.899368,38.509986 L 18.139595,39.554218 L 17.379821,40.598449 L 16.651705,41.674324 L 15.923588,42.718555 L 15.227129,43.79443 L 14.53067,44.901948 L 13.865868,45.977823 L 13.201066,47.085341 L 12.536264,48.192859 L 11.90312,49.33202 L 11.301632,50.471182 L 10.700145,51.610343 L 10.098658,52.749505 L 9.5288273,53.920309 L 8.9589971,55.091114 L 8.4208241,56.261919 L 7.9143084,57.464367 L 7.3761354,58.635172 L 6.9012769,59.869264 L 6.4264184,61.071712 L 5.9515599,62.27416 L 5.5083586,63.508252 L 5.0651574,64.742343 L 4.6536133,66.008078 L 4.2737265,67.24217 L 3.8938397,68.507905 L 3.5139529,69.77364 L 3.1657234,71.039375 L 2.849151,72.30511 L 2.5325787,73.602488 L 2.2476636,74.899866 L 5.5083586,75.12137 L 9.2755694,75.342874 L 13.39101,75.627664 L 17.823023,75.912454 L 22.476636,76.228888 L 27.193564,76.513679 L 31.942149,76.830112 L 36.595762,77.146546 L 41.059432,77.431336 L 45.238187,77.716127 L 49.037055,77.93763 L 52.361064,78.159134 L 55.115244,78.348994 L 57.204621,78.475568 L 58.534225,78.570498 L 58.977426,78.602141 z M 94.813415,0 L 93.483811,0.031643374 L 92.12255,0.063286748 L 90.761289,0.1265735 L 89.431685,0.18986024 L 88.102081,0.28479037 L 86.772477,0.41136386 L 85.442873,0.53793736 L 84.11327,0.69615423 L 82.815323,0.8543711 L 81.485719,1.0442313 L 80.187773,1.2340916 L 78.889826,1.4555952 L 77.591879,1.6770988 L 76.32559,1.9618892 L 75.027644,2.2150362 L 73.761354,2.4998266 L 72.495065,2.8162603 L 71.228776,3.132694 L 69.962486,3.4807711 L 68.727854,3.8288483 L 67.493222,4.2085688 L 66.25859,4.5882892 L 65.023958,4.9996531 L 63.820983,5.411017 L 62.618008,5.8540242 L 61.415033,6.2970314 L 60.212058,6.7716821 L 59.009083,7.2463327 L 57.837766,7.7526266 L 56.666448,8.2589206 L 55.49513,8.796858 L 54.35547,9.3347954 L 87.31065,59.774334 L 94.813415,0 z "
       style="fill:#e46730;fill-opacity:1;fill-rule:evenodd;stroke:none"
       id="path2186" />
    <path
       d="M 189.81677,79.171722 L 190.19666,81.450045 L 190.51323,83.760011 L 190.76649,86.101621 L 190.95643,88.443231 L 191.11472,90.78484 L 191.20969,93.158093 L 191.24135,95.56299 L 191.11472,100.46771 L 190.73483,105.34079 L 190.13334,110.11894 L 189.2786,114.8338 L 188.20225,119.45374 L 186.93596,123.97874 L 185.41642,128.40881 L 183.70693,132.74395 L 181.80749,136.98417 L 179.68646,141.0978 L 177.37548,145.11651 L 174.90622,148.97701 L 172.21535,152.74257 L 169.39786,156.34991 L 166.39042,159.83068 L 163.2247,163.12159 L 159.90069,166.28593 L 156.41839,169.29205 L 152.80947,172.13995 L 149.07391,174.798 L 145.18007,177.29782 L 141.19126,179.60779 L 137.07582,181.69625 L 132.83375,183.6265 L 128.49671,185.33524 L 124.03304,186.82248 L 119.50606,188.11986 L 114.8841,189.19573 L 110.16717,190.01846 L 105.38693,190.61969 L 100.54337,190.99941 L 95.604845,191.12598 L 90.697974,190.99941 L 85.82276,190.61969 L 81.042518,190.01846 L 76.357247,189.19573 L 71.703634,188.11986 L 67.17665,186.82248 L 62.744637,185.33524 L 58.407596,183.6265 L 54.165527,181.69625 L 50.050086,179.60779 L 46.029618,177.29782 L 42.167435,174.798 L 38.400224,172.13995 L 34.7913,169.29205 L 31.340661,166.28593 L 28.016652,163.12159 L 24.850928,159.83068 L 21.843491,156.34991 L 18.99434,152.74257 L 16.335133,148.97701 L 13.834211,145.11651 L 11.55489,141.0978 L 9.4338556,136.98417 L 7.5027644,132.74395 L 5.7932737,128.40881 L 4.3053838,123.97874 L 3.0074372,119.45374 L 1.9310912,114.8338 L 1.1080032,110.11894 L 0.50651574,105.34079 L 0.12662893,100.46771 L 0,95.56299 L 0.031657234,93.158093 L 0.12662893,90.78484 L 0.25325787,88.443231 L 0.4748585,86.101621 L 0.72811637,83.760011 L 1.0446887,81.450045 L 1.3929183,79.171722 L 1.8361195,76.893399 L 95.604845,115.37174 L 189.40523,76.893399 L 189.81677,79.171722 z "
       style="fill:#371d68;fill-opacity:1;fill-rule:evenodd;stroke:none"
       id="path2188" />
    <path
       d="M 138.15217,123.12437 L 137.74062,124.83311 L 137.26576,126.54185 L 136.69593,128.18731 L 136.06279,129.83276 L 135.39799,131.41493 L 134.63821,132.9971 L 133.84678,134.51598 L 132.96038,136.00322 L 132.04232,137.45882 L 131.06095,138.88277 L 130.04792,140.27508 L 128.97157,141.6041 L 127.83191,142.90148 L 126.66059,144.13557 L 125.42596,145.33802 L 124.12801,146.47718 L 122.83007,147.5847 L 121.46881,148.62893 L 120.04423,149.60987 L 118.61965,150.55917 L 117.13176,151.41354 L 115.61222,152.23627 L 114.02936,152.99571 L 112.44649,153.72351 L 110.83197,154.35638 L 109.1858,154.92596 L 107.47631,155.43225 L 105.76682,155.87526 L 104.02567,156.25498 L 102.28452,156.57141 L 100.48006,156.79292 L 101.01823,156.60306 L 101.52475,156.38155 L 102.03126,156.16005 L 102.53778,155.9069 L 103.01264,155.62211 L 103.4875,155.33732 L 103.9307,155.02089 L 104.3739,154.70446 L 104.8171,154.35638 L 105.22864,154.0083 L 105.64019,153.66022 L 106.02008,153.24886 L 106.39996,152.86914 L 106.77985,152.45778 L 107.12808,152.01477 L 107.44465,151.57176 L 107.76122,151.12875 L 108.04614,150.6541 L 108.33105,150.17945 L 108.58431,149.7048 L 108.83757,149.19851 L 109.05917,148.69221 L 109.28077,148.15428 L 109.47071,147.64798 L 109.629,147.11005 L 109.75563,146.54047 L 109.88226,146.00253 L 110.00889,145.43295 L 110.0722,144.86337 L 110.13552,144.29379 L 110.16717,143.72421 L 110.16717,143.12298 L 110.16717,142.36354 L 110.10386,141.63574 L 110.00889,140.90794 L 109.88226,140.18015 L 109.72397,139.48399 L 109.53403,138.78784 L 109.28077,138.12333 L 109.02751,137.45882 L 108.7426,136.82595 L 108.42602,136.19308 L 108.0778,135.59186 L 107.69791,134.99063 L 107.28636,134.42105 L 106.84316,133.88312 L 106.39996,133.34518 L 105.9251,132.83888 L 105.41859,132.36423 L 104.88041,131.92123 L 104.34224,131.47822 L 103.77241,131.06686 L 103.17092,130.68713 L 102.56944,130.33906 L 101.93629,130.02262 L 101.30315,129.73783 L 100.63835,129.48469 L 99.973544,129.26318 L 99.277084,129.07332 L 98.580625,128.88346 L 97.852509,128.75689 L 97.15605,128.66196 L 96.396276,128.63032 L 95.66816,128.59867 L 94.908386,128.63032 L 94.18027,128.66196 L 93.452154,128.75689 L 92.724037,128.88346 L 92.027578,129.07332 L 91.331119,129.26318 L 90.666317,129.48469 L 90.001515,129.73783 L 89.36837,130.02262 L 88.735226,130.33906 L 88.133738,130.71878 L 87.532251,131.06686 L 86.962421,131.47822 L 86.424248,131.92123 L 85.886075,132.36423 L 85.379559,132.83888 L 84.9047,133.34518 L 84.461499,133.88312 L 84.018298,134.42105 L 83.606754,134.99063 L 83.226867,135.59186 L 82.878638,136.19308 L 82.562065,136.82595 L 82.27715,137.45882 L 82.023892,138.12333 L 81.770634,138.81948 L 81.580691,139.48399 L 81.422405,140.21179 L 81.295776,140.90794 L 81.200804,141.63574 L 81.13749,142.39518 L 81.13749,143.12298 L 81.13749,143.72421 L 81.169147,144.29379 L 81.232461,144.86337 L 81.327433,145.43295 L 81.422405,146.00253 L 81.549034,146.57211 L 81.675663,147.11005 L 81.833949,147.64798 L 82.023892,148.18592 L 82.245493,148.69221 L 82.467093,149.19851 L 82.688694,149.7048 L 82.973609,150.17945 L 83.258524,150.6541 L 83.543439,151.12875 L 83.860012,151.57176 L 84.176584,152.01477 L 84.524814,152.45778 L 84.9047,152.86914 L 85.25293,153.2805 L 85.664474,153.66022 L 86.076018,154.0083 L 86.487562,154.38802 L 86.930763,154.70446 L 87.373965,155.02089 L 87.817166,155.33732 L 88.292024,155.62211 L 88.766883,155.9069 L 89.273399,156.16005 L 89.779914,156.38155 L 90.28643,156.60306 L 90.824603,156.79292 L 89.051798,156.57141 L 87.31065,156.25498 L 85.569502,155.9069 L 83.891669,155.4639 L 82.213836,154.9576 L 80.567659,154.38802 L 78.953141,153.75515 L 77.401936,153.059 L 75.850732,152.29956 L 74.331184,151.50848 L 72.874952,150.62246 L 71.418719,149.7048 L 70.025801,148.72386 L 68.66454,147.71127 L 67.366593,146.6354 L 66.100304,145.49623 L 64.865672,144.32543 L 63.694354,143.09134 L 62.554694,141.8256 L 61.478348,140.52822 L 60.465316,139.16756 L 59.483942,137.77525 L 58.565882,136.3513 L 57.67948,134.86406 L 56.888049,133.37682 L 56.128275,131.8263 L 55.431816,130.24413 L 54.798671,128.63032 L 54.228841,126.98486 L 53.722325,125.3394 L 53.279124,123.63066 L 52.899237,121.92192 L 33.176781,113.4415 L 33.30341,116.60583 L 33.588325,119.73853 L 34.031526,122.80793 L 34.633014,125.8457 L 35.36113,128.82018 L 36.247532,131.73137 L 37.260564,134.57927 L 38.400224,137.36389 L 39.666514,140.08522 L 41.059432,142.74326 L 42.578979,145.30637 L 44.225155,147.8062 L 45.966303,150.2111 L 47.83408,152.52106 L 49.796828,154.7361 L 51.854549,156.85621 L 54.00724,158.91302 L 56.254904,160.81163 L 58.629197,162.64694 L 61.066804,164.35568 L 63.567725,165.93785 L 66.163618,167.42509 L 68.854483,168.78576 L 71.577005,169.98821 L 74.394499,171.09572 L 77.275307,172.04502 L 80.21943,172.86775 L 83.226867,173.56391 L 86.265961,174.10184 L 89.36837,174.48156 L 92.502437,174.73471 L 95.66816,174.798 L 98.86554,174.73471 L 102.03126,174.48156 L 105.13367,174.10184 L 108.20442,173.56391 L 111.21186,172.86775 L 114.15598,172.04502 L 117.06845,171.06408 L 119.88594,169.95656 L 122.64012,168.72247 L 125.33099,167.36181 L 127.92688,165.87457 L 130.45946,164.2924 L 132.89707,162.55201 L 135.2397,160.7167 L 137.51902,158.78645 L 139.67171,156.72963 L 141.76109,154.60953 L 143.72384,152.36285 L 145.59162,150.02124 L 147.33277,147.5847 L 148.94728,145.08487 L 150.46683,142.49011 L 151.85975,139.83207 L 153.12604,137.0791 L 154.2657,134.29448 L 155.27873,131.41493 L 156.13348,128.4721 L 156.86159,125.46598 L 157.43142,122.42821 L 157.84297,119.32716 L 158.12788,116.19447 L 158.25451,112.99849 L 138.53205,121.38398 L 138.15217,123.12437 z "
       style="fill:#ffffff;fill-opacity:1;fill-rule:evenodd;stroke:none"
       id="path2190" />
  </g>
</svg>
